<svg width="231" height="228" viewBox="0 0 231 228" fill="none" xmlns="http://www.w3.org/2000/svg">
<path d="M201.018 0C193.258 0 185.424 3.19613 179.549 9.21741L61.7803 128.121L55.9884 133.771C49.027 135.103 42.3904 138.604 37.1276 144.473C29.405 153.129 27.8828 163.716 24.9497 175.083C22.0074 186.46 18.2761 199.13 9.2819 213.132L0 228H17.1158C53.4452 228 77.411 210.203 89.6353 197.675L89.9137 197.389C95.5014 191.511 98.6201 184.12 99.7804 176.577L104.421 172.115L222.19 53.2117V52.9169C227.832 47.1151 231 39.2581 231 31.0671C231 22.8762 227.832 15.0192 222.19 9.21741C216.315 3.19613 208.768 0 201.009 0H201.018ZM201.018 18.7297C203.914 18.7297 206.671 20.0614 209.14 22.5917C214.106 27.6808 214.106 34.444 209.14 39.5426L125.306 124.554L108.487 107.308L192.599 22.5917C195.068 20.0709 198.113 18.7297 201.018 18.7297ZM95.1302 120.692L111.958 137.928L98.0354 151.902L81.2073 134.656L95.1302 120.692ZM63.2468 152.187C67.9249 152.339 72.9928 154.194 76.882 157.837C84.094 164.591 84.2703 176.415 76.5849 184.291C68.5375 192.538 54.2527 203.173 33.3684 207.187C37.8237 197.19 40.9424 187.858 42.9381 180.134C46.0196 168.206 48.303 160.025 50.772 157.238C54.0021 153.642 58.5688 152.044 63.2468 152.197V152.187Z" fill="white"/>
</svg>
