<svg width="20" height="12" viewBox="0 0 20 12" fill="none" xmlns="http://www.w3.org/2000/svg">
<path d="M18.9444 5.00006H1.05556C0.472588 5.00006 0 5.42539 0 5.95006V6.05006C0 6.57473 0.472588 7.00006 1.05556 7.00006H18.9444C19.5274 7.00006 20 6.57473 20 6.05006V5.95006C20 5.42539 19.5274 5.00006 18.9444 5.00006Z" fill="black"/>
<path d="M18.9444 9.99994H1.05556C0.472588 9.99994 0 10.4253 0 10.9499V11.0499C0 11.5746 0.472588 11.9999 1.05556 11.9999H18.9444C19.5274 11.9999 20 11.5746 20 11.0499V10.9499C20 10.4253 19.5274 9.99994 18.9444 9.99994Z" fill="black"/>
<path d="M18.9444 0H1.05556C0.472588 0 0 0.425329 0 0.95V1.05C0 1.57467 0.472588 2 1.05556 2H18.9444C19.5274 2 20 1.57467 20 1.05V0.95C20 0.425329 19.5274 0 18.9444 0Z" fill="black"/>
</svg>
