<svg width="193" height="184" viewBox="0 0 193 184" fill="none" xmlns="http://www.w3.org/2000/svg">
<path d="M17.9504 37.1392C46.2479 -0.389153 104.864 -11.3046 146.579 14.5225C187.774 40.0142 202.924 89.0521 186.041 135.052C170.112 178.493 128.137 195.695 97.886 173.845C86.5574 165.661 82.1588 155.398 80.0413 138.732L79.021 129.273L78.5879 125.459C77.404 116.508 75.5945 112.503 71.8023 110.394C66.6529 107.538 63.2168 107.471 56.4504 110.078L53.072 111.477L51.3491 112.225C41.5894 116.441 35.1021 117.927 26.892 116.211L24.967 115.761L23.3885 115.31C-3.45561 107.03 -7.43073 70.7767 17.9504 37.1392ZM27.4214 101.501L28.6053 101.855L29.895 102.143C34.1204 102.977 37.7298 102.287 43.7261 99.8238L49.5204 97.3609C61.0896 92.6363 68.626 92.1859 78.8381 97.84C87.6643 102.747 91.11 110.279 92.8618 123.332L93.3719 127.73L93.9013 132.829L94.3536 136.873C96.0091 149.916 99.0218 156.902 106.366 162.211C128.263 178.024 159.63 165.173 172.489 130.117C187.081 90.3267 174.164 48.5242 138.956 26.7221C103.584 4.83377 53.303 14.2063 29.4908 45.7642C9.51889 72.2429 11.9733 96.3642 27.4214 101.501ZM135.462 82.3917C135.007 80.8585 134.865 79.2503 135.045 77.6616C135.224 76.073 135.721 74.5362 136.506 73.1417C137.291 71.7472 138.348 70.5233 139.616 69.542C140.883 68.5607 142.335 67.842 143.886 67.4282C145.437 67.0143 147.055 66.9137 148.646 67.1323C150.236 67.3508 151.767 67.8842 153.147 68.7008C154.527 69.5175 155.729 70.6009 156.682 71.8874C157.636 73.1738 158.32 74.6372 158.697 76.1913C159.432 79.2289 158.947 82.4324 157.344 85.1185C155.74 87.8047 153.147 89.7608 150.115 90.5697C147.084 91.3786 143.855 90.9763 141.118 89.4485C138.38 87.9207 136.351 85.3884 135.462 82.3917ZM140.217 115.818C139.391 112.749 139.823 109.479 141.419 106.728C143.015 103.976 145.643 101.968 148.725 101.146C151.808 100.324 155.092 100.755 157.855 102.343C160.619 103.932 162.635 106.549 163.461 109.618C163.87 111.138 163.974 112.723 163.768 114.282C163.562 115.842 163.049 117.346 162.259 118.709C161.469 120.071 160.417 121.265 159.163 122.223C157.91 123.18 156.479 123.883 154.953 124.29C153.426 124.697 151.835 124.801 150.268 124.596C148.701 124.39 147.191 123.88 145.823 123.093C144.454 122.306 143.255 121.259 142.293 120.011C141.331 118.763 140.626 117.338 140.217 115.818ZM116.424 53.6129C115.598 50.5439 116.03 47.2739 117.626 44.5224C119.222 41.7708 121.85 39.7631 124.932 38.9408C128.015 38.1186 131.299 38.5492 134.062 40.138C136.826 41.7267 138.842 44.3435 139.668 47.4125C140.077 48.9322 140.181 50.5171 139.975 52.0769C139.769 53.6366 139.256 55.1407 138.466 56.5031C137.676 57.8655 136.624 59.0597 135.37 60.0173C134.117 60.975 132.686 61.6775 131.16 62.0846C128.077 62.9068 124.793 62.4762 122.03 60.8875C120.661 60.1008 119.462 59.0535 118.5 57.8053C117.538 56.5571 116.833 55.1326 116.424 53.6129ZM116.154 139.844C115.7 138.311 115.558 136.702 115.737 135.114C115.916 133.525 116.413 131.988 117.198 130.594C117.983 129.199 119.04 127.975 120.308 126.994C121.575 126.013 123.027 125.294 124.578 124.88C126.129 124.466 127.747 124.366 129.338 124.584C130.928 124.803 132.459 125.336 133.839 126.153C135.219 126.97 136.421 128.053 137.375 129.339C138.328 130.626 139.013 132.089 139.389 133.643C140.125 136.681 139.639 139.884 138.036 142.571C136.433 145.257 133.839 147.213 130.808 148.022C127.776 148.831 124.548 148.428 121.81 146.901C119.073 145.373 117.043 142.84 116.154 139.844ZM82.4956 44.2979C82.072 42.7734 81.9558 41.1805 82.1537 39.6111C82.3516 38.0416 82.8597 36.5268 83.6487 35.1539C84.4377 33.781 85.4919 32.5773 86.7506 31.6122C88.0093 30.6471 89.4475 29.9398 90.9822 29.531C92.5169 29.1223 94.1177 29.0202 95.6922 29.2307C97.2667 29.4412 98.7838 29.9601 100.156 30.7574C101.528 31.5547 102.728 32.6147 103.686 33.8762C104.645 35.1376 105.343 36.5756 105.74 38.1071C106.534 41.166 106.082 44.4132 104.482 47.1417C102.883 49.8703 100.265 51.8593 97.2002 52.6756C94.1349 53.492 90.8699 53.0697 88.1158 51.5007C85.3618 49.9316 83.3418 47.3428 82.4956 44.2979Z" fill="white"/>
</svg>
