<svg width="26" height="20" viewBox="0 0 26 20" fill="none" xmlns="http://www.w3.org/2000/svg">
<path d="M17.6429 20H1.85714C1.3646 20 0.892226 19.7893 0.543944 19.4142C0.195663 19.0391 0 18.5304 0 18V2C0 1.46957 0.195663 0.960859 0.543944 0.585786C0.892226 0.210714 1.3646 0 1.85714 0H17.6429C18.1354 0 18.6078 0.210714 18.9561 0.585786C19.3043 0.960859 19.5 1.46957 19.5 2V6.06L24.5329 2.19C24.6714 2.08373 24.8345 2.02051 25.0042 2.00724C25.1738 1.99396 25.3437 2.03115 25.4951 2.11473C25.6464 2.19832 25.7736 2.32509 25.8627 2.4812C25.9517 2.63732 25.9992 2.81678 26 3V17C25.9992 17.1832 25.9517 17.3627 25.8627 17.5188C25.7736 17.6749 25.6464 17.8017 25.4951 17.8853C25.3437 17.9689 25.1738 18.006 25.0042 17.9928C24.8345 17.9795 24.6714 17.9163 24.5329 17.81L19.5 13.94V18C19.5 18.5304 19.3043 19.0391 18.9561 19.4142C18.6078 19.7893 18.1354 20 17.6429 20Z" fill="black"/>
</svg>
